<svg preserveAspectRatio="none" overflow="visible" style="display: block;" width="24" height="24" viewBox="0 0 24 24" fill="none" xmlns="http://www.w3.org/2000/svg">
<g id="Arrow">
<path id="Vector" d="M12.3902 14.8371L16.8402 10.2922C16.9433 10.1871 17 10.0468 17 9.89715C17 9.74753 16.9433 9.60721 16.8402 9.50209L16.5126 9.16739C16.2991 8.9496 15.9521 8.9496 15.739 9.16739L12.0021 12.9838L8.26105 9.16316C8.15804 9.05804 8.02072 9 7.8743 9C7.72772 9 7.5904 9.05804 7.48731 9.16316L7.15975 9.49785C7.05675 9.60305 7 9.74329 7 9.89292C7 10.0425 7.05675 10.1829 7.15975 10.288L11.6139 14.8371C11.7172 14.9425 11.8552 15.0003 12.0018 15C12.1491 15.0003 12.2869 14.9425 12.3902 14.8371Z" fill="#807D8D"/>
</g>
</svg>
